<mxfile host="app.diagrams.net" modified="2023-05-09T18:48:09.099Z" agent="Mozilla/5.0 (Windows NT 10.0; Win64; x64) AppleWebKit/537.36 (KHTML, like Gecko) Chrome/112.0.0.0 Safari/537.36" version="21.2.1" etag="zzbYgB8z-lzZbwuM5n7v" type="github">
  <diagram name="PÃ¡gina-1" id="3H_Rc0hiKO2eRc-kC3s-">
    <mxGraphModel>
      <root>
        <mxCell id="0" />
        <mxCell id="1" parent="0" />
      </root>
    </mxGraphModel>
  </diagram>
</mxfile>
